<svg xmlns="http://www.w3.org/2000/svg" viewBox="63 5 287 360"><defs><filter id="edge" x="-2%" y="-2%" width="104%" height="104%"><feGaussianBlur stdDeviation="0.55"/></filter></defs><path d="M 68 251 Q 70 225 93 189 L 105 161 L 107 155 L 118 153 L 126 130 L 127 113 L 137 91 Q 139 85 146 89 L 169 98 Q 181 104 173 119 L 162 134 L 150 149 L 170 155 L 188 153 L 199 152 L 215 147 L 222 130 Q 214 118 213 99 Q 205 78 216 71 Q 218 42 229 25 Q 247 6 270 11 Q 297 13 304 32 L 310 51 L 308 84 Q 319 88 313 102 L 298 110 Q 291 140 281 155 L 276 183 Q 294 192 308 205 Q 329 216 334 228 Q 341 247 340 279 L 334 321 L 344 364 L 142 365 L 138 291 Q 120 305 99 300 Q 76 300 68 275 Z" fill="white" fill-rule="evenodd" filter="url(#edge)"/></svg>
